<mxfile host="app.diagrams.net" modified="2020-08-14T03:00:40.489Z" agent="5.0 (Windows NT 10.0; Win64; x64) AppleWebKit/537.36 (KHTML, like Gecko) Chrome/84.0.4147.125 Safari/537.36" etag="o2q_zltA74oERnE1uK8R" version="13.6.0" type="github">
  <diagram id="ucAfNTo71jFCrwDiezmG" name="第 1 页">
    <mxGraphModel dx="868" dy="482" grid="1" gridSize="10" guides="1" tooltips="1" connect="1" arrows="1" fold="1" page="1" pageScale="1" pageWidth="850" pageHeight="1100" math="0" shadow="0">
      <root>
        <mxCell id="0" />
        <mxCell id="1" parent="0" />
        <mxCell id="jGtEl7Uodk_wRAFe7Uy8-1" value="" style="edgeStyle=segmentEdgeStyle;endArrow=classic;html=1;strokeColor=#FF6392;fontColor=#5AA9E6;" edge="1" parent="1" target="jGtEl7Uodk_wRAFe7Uy8-2">
          <mxGeometry width="50" height="50" relative="1" as="geometry">
            <mxPoint x="400" y="280" as="sourcePoint" />
            <mxPoint x="450" y="230" as="targetPoint" />
          </mxGeometry>
        </mxCell>
        <mxCell id="jGtEl7Uodk_wRAFe7Uy8-2" value="" style="shape=ext;double=1;rounded=0;whiteSpace=wrap;html=1;fillColor=#FFE45E;strokeColor=#FF6392;fontColor=#5AA9E6;" vertex="1" parent="1">
          <mxGeometry x="460" y="80" width="120" height="80" as="geometry" />
        </mxCell>
        <mxCell id="jGtEl7Uodk_wRAFe7Uy8-3" value="" style="ellipse;shape=doubleEllipse;whiteSpace=wrap;html=1;shadow=0;sketch=1;fillColor=#FFE45E;strokeColor=#FF6392;fontColor=#5AA9E6;" vertex="1" parent="1">
          <mxGeometry x="200" y="220" width="100" height="60" as="geometry" />
        </mxCell>
        <mxCell id="jGtEl7Uodk_wRAFe7Uy8-4" value="" style="line;strokeWidth=4;direction=south;html=1;perimeter=backbonePerimeter;points=[];outlineConnect=0;shadow=0;sketch=1;rotation=69;fillColor=#FFE45E;strokeColor=#FF6392;fontColor=#5AA9E6;" vertex="1" parent="1">
          <mxGeometry x="240" y="260" width="10" height="160" as="geometry" />
        </mxCell>
        <mxCell id="jGtEl7Uodk_wRAFe7Uy8-5" value="" style="rhombus;whiteSpace=wrap;html=1;strokeWidth=2;fillWeight=-1;hachureGap=8;fillStyle=cross-hatch;fillColor=#FFE45E;sketch=1;shadow=0;strokeColor=#FF6392;fontColor=#5AA9E6;" vertex="1" parent="1">
          <mxGeometry x="590" y="180" width="120" height="60" as="geometry" />
        </mxCell>
        <mxCell id="jGtEl7Uodk_wRAFe7Uy8-6" value="" style="line;strokeWidth=4;html=1;perimeter=backbonePerimeter;points=[];outlineConnect=0;shadow=0;sketch=1;fillColor=#FFE45E;strokeColor=#FF6392;fontColor=#5AA9E6;" vertex="1" parent="1">
          <mxGeometry x="140" y="90" width="160" height="10" as="geometry" />
        </mxCell>
        <mxCell id="jGtEl7Uodk_wRAFe7Uy8-7" value="" style="edgeStyle=segmentEdgeStyle;endArrow=classic;html=1;sketch=1;strokeColor=#FF6392;fontColor=#5AA9E6;" edge="1" parent="1">
          <mxGeometry width="50" height="50" relative="1" as="geometry">
            <mxPoint x="90" y="130" as="sourcePoint" />
            <mxPoint x="220" y="130" as="targetPoint" />
            <Array as="points">
              <mxPoint x="90" y="140" />
              <mxPoint x="220" y="140" />
            </Array>
          </mxGeometry>
        </mxCell>
        <mxCell id="jGtEl7Uodk_wRAFe7Uy8-8" value="" style="line;strokeWidth=4;html=1;perimeter=backbonePerimeter;points=[];outlineConnect=0;shadow=0;sketch=1;fillColor=#FFE45E;strokeColor=#FF6392;fontColor=#5AA9E6;" vertex="1" parent="1">
          <mxGeometry x="100" y="205" width="160" height="10" as="geometry" />
        </mxCell>
        <mxCell id="jGtEl7Uodk_wRAFe7Uy8-9" value="" style="line;strokeWidth=4;html=1;perimeter=backbonePerimeter;points=[];outlineConnect=0;shadow=0;sketch=1;fillColor=#FFE45E;strokeColor=#FF6392;fontColor=#5AA9E6;" vertex="1" parent="1">
          <mxGeometry x="340" y="250" width="160" height="10" as="geometry" />
        </mxCell>
        <mxCell id="jGtEl7Uodk_wRAFe7Uy8-10" value="" style="line;strokeWidth=4;html=1;perimeter=backbonePerimeter;points=[];outlineConnect=0;shadow=0;sketch=1;fillColor=#FFE45E;strokeColor=#FF6392;fontColor=#5AA9E6;" vertex="1" parent="1">
          <mxGeometry x="330" y="330" width="160" height="10" as="geometry" />
        </mxCell>
        <mxCell id="jGtEl7Uodk_wRAFe7Uy8-11" value="" style="edgeStyle=segmentEdgeStyle;endArrow=classic;html=1;sketch=1;jumpStyle=arc;strokeWidth=6;shadow=1;strokeColor=#FF6392;fontColor=#5AA9E6;" edge="1" parent="1">
          <mxGeometry width="50" height="50" relative="1" as="geometry">
            <mxPoint x="240" y="380" as="sourcePoint" />
            <mxPoint x="470" y="380" as="targetPoint" />
          </mxGeometry>
        </mxCell>
      </root>
    </mxGraphModel>
  </diagram>
</mxfile>
